<svg xmlns="http://www.w3.org/2000/svg" viewBox="0 0 1600 1200">
  <rect width="1600" height="1200" fill="none"/>
  <g fill="#b3001d" fill-opacity="0.62">
    <path d="M196 184c33-13 71 6 72 34 1 24-25 44-57 41-35-3-61-27-55-51 4-11 18-19 40-24z"/>
    <path d="M1142 136c20-10 43-4 52 13 10 19-4 40-30 47-29 8-58-4-61-25-2-13 12-27 39-35z"/>
    <path d="M864 874c42-26 93-17 113 18 18 32-5 72-52 89-53 19-107 0-115-39-5-24 13-49 54-68z"/>
    <path d="M367 697c24-8 49 6 53 27 5 26-20 48-52 46-31-2-53-24-44-47 5-12 19-21 43-26z"/>
    <path d="M1311 742c30-21 70-13 83 15 13 29-12 64-54 72-38 7-70-10-73-39-1-16 13-34 44-48z"/>
    <path d="M1015 354c18-10 41-7 51 7 13 18-3 42-31 48-30 7-57-7-57-29 0-10 11-20 37-26z"/>
    <path d="M642 274c17-8 36-2 43 11 8 16-4 33-28 39-25 7-48-3-51-21-2-11 10-23 36-29z"/>
    <path d="M1449 245c14-7 32-1 37 12 6 14-6 29-25 32-20 3-37-7-37-21 0-9 8-17 25-23z"/>
  </g>
  <g fill="#d00024" fill-opacity="0.48">
    <circle cx="113" cy="474" r="10"/>
    <circle cx="143" cy="506" r="4"/>
    <circle cx="96" cy="535" r="6"/>
    <circle cx="253" cy="397" r="7"/>
    <circle cx="304" cy="425" r="3"/>
    <circle cx="451" cy="201" r="5"/>
    <circle cx="501" cy="243" r="9"/>
    <circle cx="578" cy="118" r="4"/>
    <circle cx="739" cy="498" r="11"/>
    <circle cx="779" cy="522" r="5"/>
    <circle cx="816" cy="462" r="3"/>
    <circle cx="948" cy="677" r="6"/>
    <circle cx="987" cy="642" r="4"/>
    <circle cx="1058" cy="1006" r="8"/>
    <circle cx="1103" cy="1037" r="3"/>
    <circle cx="1198" cy="542" r="10"/>
    <circle cx="1240" cy="577" r="5"/>
    <circle cx="1287" cy="512" r="4"/>
    <circle cx="1392" cy="935" r="13"/>
    <circle cx="1437" cy="895" r="5"/>
    <circle cx="1506" cy="972" r="7"/>
    <circle cx="1514" cy="385" r="5"/>
    <circle cx="1551" cy="421" r="3"/>
    <circle cx="72" cy="1036" r="7"/>
    <circle cx="138" cy="1094" r="4"/>
    <circle cx="526" cy="943" r="12"/>
    <circle cx="579" cy="990" r="5"/>
  </g>
  <g fill="none" stroke="#b3001d" stroke-opacity="0.5" stroke-linecap="round">
    <path d="M168 216c105 22 214 61 327 119" stroke-width="10"/>
    <path d="M188 240c69 11 149 36 241 74" stroke-width="4"/>
    <path d="M1138 163c-124 31-239 77-344 138" stroke-width="8"/>
    <path d="M859 890c-121-16-230-5-329 35" stroke-width="9"/>
    <path d="M1328 766c-92 63-183 100-272 111" stroke-width="7"/>
    <path d="M376 723c-71 47-145 79-223 97" stroke-width="6"/>
    <path d="M1018 373c102 20 210 60 325 121" stroke-width="5"/>
    <path d="M649 294c-97-58-184-93-263-104" stroke-width="4"/>
  </g>
  <g fill="#8f0018" fill-opacity="0.38">
    <path d="M222 232c11 25 6 62-18 111-19-46-22-81-8-105 6-11 15-13 26-6z"/>
    <path d="M1161 181c4 31-9 71-38 120-9-61-6-101 11-121 8-9 17-9 27 1z"/>
    <path d="M895 933c-2 43-17 90-45 142-16-67-14-114 4-141 12-17 26-17 41-1z"/>
    <path d="M1339 799c14 31 14 73 0 126-30-52-41-91-32-119 5-14 16-17 32-7z"/>
  </g>
</svg>
